<svg width="180" height="180" viewBox="0 0 180 180" fill="none" xmlns="http://www.w3.org/2000/svg">
<path d="M47.0785 42C52.4977 42.1004 56.5792 42.4137 60.5389 43.67C65.8479 45.3544 69.1231 50.1852 68.7778 55.8578C68.4661 60.9793 64.4238 65.4291 59.2063 66.4469C57.1162 66.8545 55.1046 66.3364 53.0566 66.1052C44.9707 65.1924 37.5098 66.7209 31.3636 72.3582C26.7225 76.615 24.2728 82.0602 23.8545 88.3476C23.0624 100.252 30.6173 110.834 42.1481 113.741C50.7635 115.914 58.3677 113.758 64.956 107.817C67.3324 105.674 68.2333 102.843 68.7851 99.8975C69.6098 95.4944 70.238 91.054 70.924 86.6255C71.8971 80.3434 72.8161 74.0527 73.8195 67.7755C74.3119 64.6947 74.7756 61.5932 75.5498 58.5775C76.6533 54.2797 78.7767 50.5106 82.3051 47.6738C85.1259 45.4058 88.3854 44.2511 91.9781 43.9811C95.4677 43.7187 98.8804 44.0668 102.145 45.3739C106.714 47.203 109.733 50.597 111.744 54.9976C113.239 58.2703 113.918 61.7529 114.518 65.2668C115.892 73.3269 117.301 81.3811 118.691 89.4385C119.915 96.5315 121.133 103.626 122.353 110.719C122.386 110.907 122.439 111.091 122.458 111.28C122.502 111.714 122.593 112.111 123.139 112.123C123.745 112.136 123.894 111.721 123.974 111.221C124.192 109.852 124.424 108.486 124.656 107.12C126.053 98.8997 127.451 90.6796 128.847 82.4591C130.012 75.6031 131.162 68.7448 132.34 61.8914C132.997 58.0747 134.219 54.4695 136.512 51.2931C138.965 47.895 142.24 45.6775 146.291 44.6522C150.772 43.5184 155.248 43.5084 159.599 45.199C164.863 47.2444 168.106 51.233 170.045 56.4153C171.2 59.5024 171.559 62.7443 171.992 65.9753C172.781 71.8733 173.58 77.7701 174.372 83.6677C175.103 89.1073 175.83 94.5473 176.56 99.9869C177.302 105.507 178.054 111.026 178.784 116.548C179.197 119.672 179.666 122.793 179.943 125.929C180.165 128.45 179.747 130.92 178.569 133.209C176.296 137.625 171.747 139.278 167.175 138.882C163.601 138.572 160.671 137.048 158.636 134.004C157.526 132.343 157.19 130.461 157.009 128.519C156.322 121.131 155.609 113.746 154.912 106.359C154.345 100.351 153.793 94.3431 153.224 88.3362C152.638 82.14 152.045 75.9444 151.429 69.7511C151.403 69.4986 151.105 69.2731 150.935 69.0351C150.721 69.2664 150.363 69.4706 150.313 69.7329C148.919 77.126 147.557 84.5253 146.185 91.9228C144.586 100.548 142.99 109.175 141.377 117.798C140.883 120.439 140.504 123.117 139.784 125.699C137.989 132.136 134.059 136.676 127.394 138.28C118.34 140.459 110.206 135.919 107.087 126.927C106.124 124.15 105.651 121.192 105.086 118.291C103.329 109.284 101.636 100.265 99.9188 91.2506C98.5827 84.2359 97.2523 77.22 95.9029 70.2078C95.8138 69.7445 95.9297 68.9867 95.2166 69.0097C94.4679 69.0338 94.6922 69.8128 94.6476 70.2586C94.0579 76.154 93.5106 82.0536 92.9414 87.951C92.4793 92.7393 91.9486 97.5216 91.5441 102.315C90.9596 109.243 88.4088 115.366 84.5118 121.084C80.9692 126.282 76.0263 129.68 70.6706 132.576C64.1834 136.085 57.1855 137.855 49.8047 138.041C35.5594 138.402 23.3602 133.574 13.4027 123.383C6.31802 116.133 1.98132 107.403 0.560221 97.3583C-1.58525 82.1931 2.4217 68.7873 12.7527 57.4442C20.2289 49.2356 29.6135 44.3905 40.5873 42.6923C43.1597 42.2943 45.7691 42.1357 47.0785 42Z" fill="#1C5A7D"/>
</svg>
